<svg width="58" height="46" viewBox="0 0 58 46" fill="none" xmlns="http://www.w3.org/2000/svg">
<path d="M0.568972 9.23944C0.544234 9.27902 0 11.7231 0 11.7924C0 11.8023 1.78608 11.8171 3.97291 11.8221L7.94087 11.8369L10.2168 17.0071C11.4685 19.852 13.1705 23.726 14.0017 25.6159C16.1242 30.4497 15.8323 29.9797 19.7656 34.9075L22.7737 38.6776L34.5242 38.6677L46.2747 38.6528L46.6359 37.5396C46.8388 36.9261 47.002 36.4116 47.002 36.3868C47.002 36.367 41.7774 36.3522 35.39 36.3472H23.7731L21.7298 33.7696C20.6116 32.3496 19.7013 31.182 19.7112 31.1671C19.7359 31.1424 20.295 31.1127 28.8197 30.6625C30.3732 30.5784 32.0405 30.4893 32.5303 30.4646C33.0202 30.4349 35.0932 30.326 37.1316 30.2172C47.002 29.6927 48.422 29.6185 49.2037 29.574C49.6688 29.5493 50.1091 29.5245 50.1833 29.5245C50.3218 29.5245 50.4109 29.3464 53.7109 22.7117L57.1 15.8989L57.0901 15.419L57.0852 14.9391L56.8527 14.5878C56.63 14.2414 56.6201 14.2365 56.155 14.0386L55.685 13.8407H35.39C24.2234 13.8407 15.0901 13.8506 15.0901 13.8654C15.0901 13.8803 15.2732 14.3948 15.4909 15.0034L15.8916 16.1166H35.2317C45.869 16.1166 54.5718 16.1265 54.5718 16.1413C54.5718 16.1562 54.3195 16.6658 54.0177 17.2793L53.4586 18.3925H52.8896C51.0689 18.3974 17.3561 18.8279 17.3413 18.8476C17.3116 18.8773 18.0884 21.0196 18.1428 21.0642C18.1626 21.079 25.3415 20.9998 34.0888 20.886C42.8362 20.7673 50.5247 20.6733 51.1679 20.6733L52.3405 20.6684L51.7863 21.7816C51.2668 22.8304 51.2273 22.8948 51.0838 22.9146C51.0046 22.9294 48.1647 23.0185 44.7756 23.1174C41.3865 23.2164 34.6083 23.4143 29.7102 23.5627C24.8121 23.7111 20.6116 23.8348 20.3741 23.8348C20.0377 23.8348 19.9388 23.8497 19.9388 23.9041C19.9388 23.9931 20.6759 26.0266 20.7304 26.081C20.7699 26.1206 22.9865 26.0563 42.6482 25.418C46.7151 25.2894 50.0497 25.1855 50.0596 25.1954C50.0745 25.2102 48.8475 27.3525 48.793 27.407C48.7337 27.4663 18.3456 29.0891 18.2962 29.0397C18.2566 29.0001 17.6777 27.7038 15.5849 22.969C14.1996 19.8421 13.5514 18.3776 12.0474 14.9786C11.1865 13.0342 10.2563 10.9365 9.98422 10.3131L9.48451 9.18997H5.04159C2.09777 9.18997 0.588762 9.20481 0.568972 9.23944Z" fill="#2D2B2C"/>
<path d="M23.7384 40.6863C22.8676 40.8941 22.0859 41.6263 21.8138 42.4823C21.6901 42.8632 21.6703 43.6202 21.7643 43.9715C21.9523 44.6345 22.5213 45.3667 23.0902 45.6685C23.4168 45.8417 24.0352 46 24.3914 46C24.7724 46 25.381 45.8367 25.7223 45.6438C26.2864 45.3222 26.791 44.679 26.984 44.0259C27.0879 43.6697 27.0879 42.9325 26.984 42.5812C26.7762 41.8836 26.2567 41.2355 25.6481 40.9139C25.0891 40.622 24.3568 40.5329 23.7384 40.6863Z" fill="#2D2B2C"/>
<path d="M44.1818 40.6615C44.0582 40.6863 43.7811 40.7902 43.5634 40.899C41.8565 41.745 41.5497 44.0011 42.9647 45.2974C44.6766 46.8559 47.4522 45.6239 47.4472 43.3035C47.4472 42.5515 47.185 41.9281 46.6556 41.3987C46.0124 40.7555 45.1021 40.4834 44.1818 40.6615Z" fill="#2D2B2C"/>
<path d="M0.568972 7.75525C0.544234 7.79483 0 10.2389 0 10.3082C0 10.3181 1.78608 10.3329 3.97291 10.3379L7.94087 10.3527L10.2168 15.523C11.4685 18.3678 13.1705 22.2418 14.0017 24.1317C16.1242 28.9655 15.8323 28.4955 19.7656 33.4233L22.7737 37.1934L34.5242 37.1835L46.2747 37.1686L46.6359 36.0554C46.8388 35.4419 47.002 34.9274 47.002 34.9026C47.002 34.8828 41.7774 34.868 35.39 34.863H23.7731L21.7298 32.2854C20.6116 30.8654 19.7013 29.6978 19.7112 29.6829C19.7359 29.6582 20.295 29.6285 28.8197 29.1783C30.3732 29.0942 32.0405 29.0051 32.5303 28.9804C33.0202 28.9507 35.0932 28.8418 37.1316 28.733C47.002 28.2086 48.422 28.1343 49.2037 28.0898C49.6688 28.0651 50.1091 28.0403 50.1833 28.0403C50.3218 28.0403 50.4109 27.8622 53.7109 21.2275L57.1 14.4147L57.0901 13.9348L57.0852 13.4549L56.8527 13.1036C56.63 12.7573 56.6201 12.7523 56.155 12.5544L55.685 12.3565H35.39C24.2234 12.3565 15.0901 12.3664 15.0901 12.3812C15.0901 12.3961 15.2732 12.9106 15.4909 13.5192L15.8916 14.6324H35.2317C45.869 14.6324 54.5718 14.6423 54.5718 14.6571C54.5718 14.672 54.3195 15.1816 54.0177 15.7951L53.4586 16.9083H52.8896C51.0689 16.9132 17.3561 17.3437 17.3413 17.3635C17.3116 17.3931 18.0884 19.5354 18.1428 19.58C18.1626 19.5948 25.3415 19.5157 34.0888 19.4019C42.8362 19.2831 50.5247 19.1891 51.1679 19.1891L52.3405 19.1842L51.7863 20.2974C51.2668 21.3463 51.2273 21.4106 51.0838 21.4304C51.0046 21.4452 48.1647 21.5343 44.7756 21.6332C41.3865 21.7322 34.6083 21.9301 29.7102 22.0785C24.8121 22.2269 20.6116 22.3506 20.3741 22.3506C20.0377 22.3506 19.9388 22.3655 19.9388 22.4199C19.9388 22.5089 20.6759 24.5424 20.7304 24.5968C20.7699 24.6364 22.9865 24.5721 42.6482 23.9338C46.7151 23.8052 50.0497 23.7013 50.0596 23.7112C50.0745 23.726 48.8475 25.8683 48.793 25.9228C48.7337 25.9821 18.3456 27.6049 18.2962 27.5555C18.2566 27.5159 17.6777 26.2196 15.5849 21.4848C14.1996 18.3579 13.5514 16.8934 12.0474 13.4944C11.1865 11.55 10.2563 9.45227 9.98422 8.82888L9.48451 7.70577H5.04159C2.09777 7.70577 0.588762 7.72062 0.568972 7.75525Z" fill="#FDBF12"/>
<path d="M23.7384 39.202C22.8676 39.4098 22.0859 40.142 21.8138 40.998C21.6901 41.3789 21.6703 42.1359 21.7643 42.4872C21.9523 43.1502 22.5213 43.8824 23.0902 44.1842C23.4168 44.3574 24.0352 44.5157 24.3914 44.5157C24.7724 44.5157 25.381 44.3524 25.7223 44.1595C26.2864 43.8379 26.791 43.1947 26.984 42.5416C27.0879 42.1854 27.0879 41.4482 26.984 41.0969C26.7762 40.3993 26.2567 39.7512 25.6481 39.4296C25.0891 39.1377 24.3568 39.0486 23.7384 39.202Z" fill="#FDBF12"/>
<path d="M44.1818 39.1773C44.0582 39.2021 43.7811 39.306 43.5634 39.4148C41.8565 40.2609 41.5497 42.5169 42.9647 43.8132C44.6766 45.3717 47.4522 44.1398 47.4472 41.8193C47.4472 41.0673 47.185 40.4439 46.6556 39.9145C46.0124 39.2713 45.1021 38.9992 44.1818 39.1773Z" fill="#FDBF12"/>
<circle cx="47.4778" cy="7.38471" r="6.96341" fill="#EC2D2D"/>
<path d="M45.6326 4.69238C45.4406 4.64438 45.3446 4.54538 45.3446 4.39538C45.3446 4.18538 45.5666 3.93938 46.0106 3.65738C46.4606 3.36938 46.7966 3.22538 47.0186 3.22538C47.2406 3.22538 47.3516 3.32438 47.3516 3.52238C47.3516 3.69638 47.3366 4.05338 47.3066 4.59338C47.2826 5.32538 47.2706 6.15038 47.2706 7.06838C47.2706 7.98638 47.3036 8.61938 47.3696 8.96738C47.3936 9.00938 47.4056 9.06038 47.4056 9.12038C47.4056 9.33638 47.2526 9.51338 46.9466 9.65138C46.6466 9.78338 46.3856 9.84938 46.1636 9.84938C45.9416 9.84938 45.8306 9.74738 45.8306 9.54338L45.8576 9.38138C46.0016 8.31338 46.0736 7.29038 46.0736 6.31238L46.0286 5.12438C46.0286 5.03438 45.9926 4.94738 45.9206 4.86338C45.8486 4.77938 45.7526 4.72238 45.6326 4.69238Z" fill="#FDBF12"/>
</svg>
