<svg width="53" height="81" viewBox="0 0 53 81" fill="none" xmlns="http://www.w3.org/2000/svg">
<path d="M10.6043 4.28374C-1.30182 14.7525 0.0623718 42.7844 0.0623718 42.7844C-1.02112 61.7528 12.122 72.807 30.8859 71.6652C52.743 70.3354 56.467 34.4353 48.0454 19.1393C41.0998 6.52565 23.3199 -6.89573 10.6043 4.28374" fill="#FDBF12"/>
<mask id="mask0" mask-type="alpha" maskUnits="userSpaceOnUse" x="0" y="0" width="53" height="72">
<path d="M10.6043 4.28374C-1.30182 14.7525 0.0623718 42.7844 0.0623718 42.7844C-1.02112 61.7528 12.122 72.807 30.8859 71.6652C52.743 70.3354 56.467 34.4353 48.0454 19.1393C41.0998 6.52565 23.3199 -6.89573 10.6043 4.28374" fill="#FDBF12"/>
</mask>
<g mask="url(#mask0)">
<path d="M46.175 28.3405C45.242 25.8049 43.0762 21.0724 40.8859 21.0705C38.7171 21.0693 38.2153 22.6847 38.2153 22.6847C38.2153 22.6847 36.4568 18.6474 33.6852 18.8139C30.2589 19.0196 30.1283 22.1067 30.1283 22.1067C30.1283 22.1067 28.3083 19.6093 25.3425 21.3371C22.943 22.7344 23.7166 27.0702 23.7166 27.0702C23.7166 27.0702 22.404 26.0033 20.5998 27.2066C18.777 28.4215 19.5974 33.5613 20.2257 36.189C20.918 39.0838 30.8917 73.6756 30.8917 73.6756L58.7665 65.2442C58.7665 65.2442 47.2032 31.1339 46.175 28.3405" fill="#A4DDF2"/>
<path d="M33.1158 30.3347C29.0044 31.5785 26.1665 35.8615 28.9848 37.3706C31.8033 38.8804 32.2287 35.6815 34.6311 34.9549C35.5543 34.6754 36.4117 34.8253 37.2096 34.9751C38.3754 35.1938 39.4122 35.4131 40.3354 34.2921C41.8906 32.4046 37.7685 28.9275 33.1158 30.3347Z" fill="#2D2B2C"/>
<path d="M21.7115 28.8612C20.6276 29.2979 20.7102 30.5811 21.2177 31.7561C21.7253 32.9311 22.6677 33.5318 23.4098 33.2185C24.152 32.9053 24.4356 31.5798 23.9734 30.3028C23.511 29.0252 22.593 28.5062 21.7115 28.8612" fill="#2D2B2C"/>
<path d="M28.2277 27.1857C28.9699 26.8725 29.2536 25.547 28.7912 24.2694C28.3289 22.9924 27.411 22.4728 26.5294 22.8284C25.4455 23.2651 25.5281 24.5483 26.0356 25.7233C26.5431 26.8983 27.4855 27.4984 28.2277 27.1857Z" fill="#2D2B2C"/>
<path d="M34.9622 25.1488C35.7048 24.8356 35.9886 23.5095 35.526 22.2325C35.0635 20.9556 34.1453 20.4359 33.264 20.7909C32.1801 21.2277 32.2627 22.5108 32.7702 23.6858C33.2777 24.8608 34.2202 25.4615 34.9622 25.1488Z" fill="#2D2B2C"/>
<path d="M42.5554 24.6828C42.0929 23.4052 41.1747 22.8862 40.2932 23.2412C39.2098 23.6779 39.2921 24.961 39.7994 26.136C40.3074 27.311 41.2496 27.9117 41.9916 27.5985C42.7335 27.2852 43.0173 25.9597 42.5554 24.6828" fill="#2D2B2C"/>
<path d="M29.8535 35.942C29.7836 35.942 29.7108 35.923 29.6345 35.8824C28.7945 35.4328 29.1677 33.7793 30.8525 32.347C31.9849 31.3839 33.2766 30.8722 34.1091 30.8722C34.6146 30.8722 34.9506 31.0608 34.9801 31.4502C35.0267 32.0687 33.1494 32.7665 32.0484 33.393C30.9815 33.9998 30.5623 35.9426 29.8535 35.942" fill="#818080"/>
<path d="M22.3073 31.6584C21.9519 31.6584 21.7714 31.1148 21.6809 30.7223C21.5667 30.2266 21.4536 29.4705 21.9681 29.3446C21.9904 29.3391 22.0122 29.3366 22.0335 29.3366C22.4123 29.3366 22.6209 30.1664 22.6268 30.5534C22.6331 30.9619 22.7553 31.5945 22.3629 31.6541C22.3439 31.6572 22.3254 31.6584 22.3073 31.6584Z" fill="#818080"/>
<path d="M27.0651 25.3812C26.7098 25.3812 26.5292 24.8376 26.4387 24.4445C26.3245 23.9488 26.2114 23.1927 26.726 23.0674C26.7483 23.0619 26.7701 23.0594 26.7914 23.0594C27.1702 23.0594 27.3787 23.8886 27.3847 24.2756C27.391 24.684 27.5131 25.3167 27.1207 25.3769C27.1017 25.3799 27.0832 25.3812 27.0651 25.3812" fill="#818080"/>
<path d="M33.8605 23.4138C33.505 23.4138 33.3245 22.8702 33.234 22.4771C33.1198 21.9821 33.0068 21.2253 33.5211 21.1C33.5435 21.0945 33.5653 21.0921 33.5866 21.0921C33.9655 21.0921 34.1737 21.9213 34.1799 22.3082C34.186 22.7173 34.3082 23.3493 33.9158 23.4095C33.8967 23.4126 33.8783 23.4138 33.8605 23.4138Z" fill="#818080"/>
<path d="M41.0818 25.8627C40.7268 25.8627 40.5462 25.3191 40.4553 24.9266C40.3411 24.4309 40.228 23.6748 40.7428 23.5489C40.7649 23.544 40.787 23.5409 40.8085 23.5409C41.1868 23.5409 41.3957 24.3707 41.4018 24.7577C41.408 25.1661 41.5302 25.7988 41.1377 25.8584C41.1187 25.8614 41.1002 25.8627 41.0818 25.8627Z" fill="#818080"/>
<path d="M29.7817 44.4264C28.9513 42.1704 27.0244 37.9596 25.0752 37.9579C23.1457 37.9568 22.6994 39.3942 22.6994 39.3942C22.6994 39.3942 21.1347 35.802 18.6685 35.9501C15.6199 36.1331 15.5036 38.8799 15.5036 38.8799C15.5036 38.8799 13.8843 36.6578 11.2454 38.1951C9.11049 39.4384 9.79882 43.2957 9.79882 43.2957C9.79882 43.2957 8.63087 42.347 7.02561 43.4176C5.40373 44.4986 6.13376 49.0718 6.69273 51.4098C7.3087 53.9855 16.1829 84.7639 16.1829 84.7639L40.985 77.2619C40.985 77.2619 30.6965 46.912 29.7817 44.4264" fill="white"/>
<path d="M18.1618 46.2009C14.5036 47.3076 11.9786 51.1184 14.4863 52.4618C16.994 53.8045 17.3726 50.9583 19.5101 50.3118C20.3314 50.0631 21.0946 50.1965 21.8042 50.3298C22.8415 50.5244 23.7641 50.7195 24.5856 49.7221C25.969 48.0427 22.3013 44.9489 18.1618 46.2009" fill="#2D2B2C"/>
<path d="M8.01446 44.8899C7.05009 45.2785 7.12354 46.4201 7.57512 47.4656C8.02671 48.5111 8.86522 49.0456 9.52551 48.7668C10.1859 48.4887 10.4383 47.3088 10.027 46.1726C9.61558 45.0358 8.79882 44.574 8.01446 44.8899" fill="#2D2B2C"/>
<path d="M13.8124 43.3992C14.4728 43.1204 14.7253 41.9411 14.3138 40.8049C13.9024 39.6681 13.0858 39.2058 12.3013 39.5222C11.337 39.9108 11.4104 41.0524 11.862 42.0979C12.3136 43.1434 13.1521 43.6779 13.8124 43.3992" fill="#2D2B2C"/>
<path d="M19.805 41.5868C20.4653 41.3081 20.7178 40.1282 20.3064 38.992C19.895 37.8558 19.0782 37.3935 18.2939 37.7094C17.3295 38.0979 17.403 39.2396 17.8545 40.2851C18.3061 41.3305 19.1446 41.865 19.805 41.5868Z" fill="#2D2B2C"/>
<path d="M26.5606 41.1721C26.1492 40.0353 25.3325 39.5735 24.548 39.8894C23.5836 40.278 23.6571 41.4196 24.1087 42.4651C24.5602 43.5106 25.3989 44.0451 26.0592 43.7664C26.7195 43.4876 26.972 42.3083 26.5606 41.1721" fill="#2D2B2C"/>
<path d="M15.2593 51.1901C15.1971 51.1901 15.1324 51.1737 15.0645 51.1371C14.3171 50.7371 14.6492 49.2664 16.1482 47.9914C17.1558 47.1345 18.305 46.6792 19.046 46.6792C19.4955 46.6792 19.7947 46.847 19.8208 47.1935C19.8622 47.7438 18.1919 48.3647 17.2124 48.9221C16.263 49.4621 15.8901 51.1907 15.2593 51.1901" fill="#818080"/>
<path d="M8.5449 47.3793C8.22863 47.3793 8.06801 46.8951 7.98746 46.5459C7.88586 46.1049 7.78525 45.4321 8.24301 45.3201C8.2629 45.3157 8.2823 45.313 8.30121 45.313C8.6383 45.313 8.82384 46.0513 8.8292 46.3956C8.83477 46.759 8.94347 47.3219 8.59436 47.3755C8.57747 47.3777 8.56097 47.3793 8.5449 47.3793" fill="#818080"/>
<path d="M12.7784 41.7935C12.4622 41.7935 12.3015 41.3098 12.221 40.96C12.1194 40.519 12.0188 39.8462 12.4766 39.7348C12.4965 39.7298 12.5158 39.7276 12.5348 39.7276C12.8718 39.7276 13.0574 40.4654 13.0627 40.8097C13.0683 41.1732 13.177 41.7361 12.8279 41.7896C12.8109 41.7924 12.7945 41.7935 12.7784 41.7935" fill="#818080"/>
<path d="M18.8242 40.0429C18.508 40.0429 18.3474 39.5592 18.2669 39.2095C18.1653 38.769 18.0647 38.0957 18.5224 37.9842C18.5423 37.9793 18.5616 37.9771 18.5806 37.9771C18.9178 37.9771 19.1032 38.7149 19.1085 39.0592C19.1142 39.4232 19.2229 39.9855 18.8738 40.0391C18.8568 40.0418 18.8404 40.0429 18.8242 40.0429Z" fill="#818080"/>
<path d="M25.2496 42.2219C24.9333 42.2219 24.7727 41.7383 24.6922 41.389C24.5906 40.948 24.49 40.2753 24.9477 40.1632C24.9676 40.1588 24.987 40.1561 25.0059 40.1561C25.343 40.1561 25.5286 40.8944 25.5339 41.2388C25.5394 41.6022 25.6481 42.1651 25.299 42.2181C25.2821 42.2208 25.2656 42.2219 25.2496 42.2219Z" fill="#818080"/>
</g>
<path d="M6.89629 62.5123L7.79026 62.49C8.20744 62.49 8.41603 62.7135 8.41603 63.1605C8.41603 63.7564 8.20744 64.2183 7.79026 64.5461C7.37308 64.859 6.8516 65.0378 6.22582 65.0825C6.00233 65.0825 5.79374 65.1421 5.60004 65.2613C5.42125 65.3656 5.3244 65.4848 5.30951 65.6189C5.20521 66.7065 5.15306 67.973 5.15306 69.4182C5.15306 70.8635 5.22756 72.2864 5.37655 73.6869C5.42125 73.8359 5.4436 73.9998 5.4436 74.1786C5.4436 74.3723 5.3989 74.5585 5.30951 74.7373C5.02642 75.2439 4.60923 75.6536 4.05795 75.9665C3.31298 76.3688 2.64996 76.5699 2.06888 76.5699C1.5027 76.5699 1.21961 76.3614 1.21961 75.9442L1.30901 75.4972C1.89009 73.1133 2.18063 69.9472 2.18063 65.9988V65.7306C2.18063 65.6412 2.14338 65.5965 2.06888 65.5965C1.5027 65.5965 1.21961 65.3432 1.21961 64.8367C1.21961 64.5387 1.34626 64.1215 1.59955 63.5851C1.85284 63.0338 2.12103 62.7209 2.40412 62.6464C2.41902 62.4527 2.42647 62.2144 2.42647 61.9313C2.42647 60.5605 2.20298 59.6964 1.75599 59.3388C1.607 59.16 1.5325 58.9365 1.5325 58.6683C1.5325 58.1915 1.84539 57.7669 2.47117 57.3944C3.66312 56.7537 5.05622 56.4334 6.65045 56.4334C7.03784 56.4334 7.35073 56.4483 7.58912 56.4781C7.84241 56.5079 8.08825 56.6122 8.32664 56.791C8.56503 56.9549 8.68422 57.2007 8.68422 57.5285C8.68422 58.0798 8.28194 58.4746 7.47737 58.713C6.6728 58.9514 6.12897 59.2792 5.84588 59.6964C5.5628 60.1135 5.42125 60.6946 5.42125 61.4396C5.42125 61.6035 5.43615 61.8493 5.46595 62.1771C5.48085 62.4006 5.95763 62.5123 6.89629 62.5123ZM10.9408 69.4853C10.9408 70.1111 11.1643 70.4239 11.6113 70.4239C12.0582 70.4239 12.4158 70.193 12.684 69.7311C12.9671 69.2692 13.1087 68.8595 13.1087 68.5019C13.1087 67.8314 12.8703 67.4962 12.3935 67.4962C11.9614 67.4962 11.6113 67.7122 11.3431 68.1443C11.0749 68.5764 10.9408 69.0234 10.9408 69.4853ZM15.7459 65.9318L15.6788 69.0383C15.6788 70.2749 15.8352 70.9901 16.1481 71.1838C16.3418 71.3328 16.4387 71.5265 16.4387 71.7649C16.4387 72.197 16.1481 72.5993 15.5671 72.9717C15.0009 73.3442 14.4198 73.5305 13.8238 73.5305C13.5258 73.5305 13.3023 73.4634 13.1534 73.3293C13.0044 73.2101 12.9299 73.076 12.9299 72.927C12.9299 72.5248 12.8777 72.3236 12.7734 72.3236C12.7585 72.3236 12.6617 72.413 12.4829 72.5918C12.319 72.7557 12.0657 72.927 11.723 73.1058C11.3952 73.2697 10.9706 73.3517 10.4491 73.3517C9.94253 73.3517 9.48809 73.225 9.08581 72.9717C8.69842 72.7185 8.43024 72.3907 8.28124 71.9884C8.01305 71.3179 7.87896 70.6921 7.87896 70.1111C7.87896 69.53 7.96835 68.9861 8.14715 68.4796C8.32594 67.973 8.54943 67.5633 8.81762 67.2504C9.08581 66.9375 9.3987 66.6618 9.75628 66.4234C10.1139 66.1702 10.4491 65.9914 10.762 65.8871C11.0749 65.7679 11.3952 65.671 11.723 65.5965C12.1849 65.5071 12.5052 65.4624 12.684 65.4624L12.9075 65.1719C12.8926 64.6653 12.5201 64.412 11.7901 64.412C11.0749 64.412 10.4864 64.5536 10.0245 64.8367C9.84568 64.9559 9.66689 65.0154 9.48809 65.0154C9.13051 65.0154 8.95172 64.7473 8.95172 64.2109C8.95172 62.8252 10.0543 62.1324 12.2594 62.1324C13.9579 62.1324 15.0232 62.6986 15.4553 63.8309C15.649 64.3375 15.7459 65.0378 15.7459 65.9318ZM20.7224 61.9089C22.6891 61.9089 23.6725 62.49 23.6725 63.6522C23.6725 63.9799 23.5607 64.2556 23.3372 64.4791C23.1286 64.7026 22.8828 64.8143 22.5997 64.8143C22.3315 64.8143 22.0708 64.7398 21.8175 64.5908C21.5642 64.4418 21.2811 64.3673 20.9682 64.3673C20.2083 64.3673 19.8284 64.5834 19.8284 65.0154C19.8284 65.2091 19.9476 65.373 20.186 65.5071C21.9441 66.3862 23.002 67.1014 23.3596 67.6526C23.7917 68.2933 24.0077 69.0606 24.0077 69.9546C24.0077 70.2824 23.9332 70.6772 23.7842 71.1391C23.6352 71.601 23.4341 71.9958 23.1808 72.3236C22.9275 72.6365 22.5252 72.927 21.9739 73.1952C21.4226 73.4634 20.7671 73.5975 20.0072 73.5975C19.4708 73.5975 18.8972 73.5081 18.2863 73.3293C17.0497 72.9717 16.4313 72.2342 16.4313 71.1168C16.4313 70.5953 16.5803 70.1483 16.8783 69.7758C17.1763 69.3884 17.5488 69.1947 17.9958 69.1947C18.4428 69.1947 18.7631 69.3288 18.9568 69.597C18.9717 69.6119 19.0164 69.679 19.0909 69.7982C19.1654 69.9174 19.2324 70.0068 19.292 70.0664C19.4857 70.26 19.739 70.3569 20.0519 70.3569C20.3648 70.3569 20.6106 70.2824 20.7894 70.1334C20.9682 69.9695 21.0576 69.7535 21.0576 69.4853C21.0576 69.2171 20.849 68.9414 20.4318 68.6584C20.0146 68.3753 19.5528 68.1294 19.0462 67.9208C18.5545 67.7122 18.1001 67.3845 17.6829 66.9375C17.2657 66.4756 17.0571 65.9392 17.0571 65.3283C17.0571 64.2854 17.3924 63.4585 18.0628 62.8476C18.7482 62.2218 19.6347 61.9089 20.7224 61.9089ZM27.6918 58.9588L27.6471 60.0316C27.6471 60.419 27.7291 60.635 27.8929 60.6797C28.0717 60.7244 28.2431 60.7468 28.407 60.7468C28.5709 60.7468 28.8167 60.7319 29.1445 60.7021C29.4574 60.7021 29.6138 60.9032 29.6138 61.3055C29.6138 62.0654 29.07 62.6539 27.9823 63.0711C27.8334 63.1307 27.7291 63.2648 27.6695 63.4734C27.5801 64.3822 27.5354 65.4475 27.5354 66.6693C27.5354 67.891 27.5801 68.6956 27.6695 69.083C27.744 69.4406 28.0121 69.6566 28.474 69.7311C28.5783 69.7311 28.6752 69.7833 28.7646 69.8876C28.9285 70.0813 29.0104 70.2749 29.0104 70.4686C29.0104 70.6474 28.9955 70.8262 28.9657 71.005C28.9359 71.1689 28.8614 71.4073 28.7422 71.7202C28.6379 72.0182 28.4964 72.3013 28.3176 72.5695C28.1537 72.8227 27.9004 73.0462 27.5577 73.2399C27.215 73.4336 26.8276 73.5305 26.3956 73.5305C25.6506 73.5305 25.1142 73.0909 24.7864 72.2119C24.6672 71.8692 24.6076 71.4594 24.6076 70.9827L24.7864 64.9708C24.7864 64.2407 24.7417 63.6447 24.6523 63.1828C24.5778 62.7209 24.2947 62.2889 23.8031 61.8866C23.5945 61.7376 23.4902 61.529 23.4902 61.2608C23.4902 60.9926 23.6243 60.7244 23.8925 60.4562C24.7119 59.9496 25.4643 59.1525 26.1497 58.0649C26.3583 57.7818 26.619 57.6402 26.9319 57.6402C27.4385 57.6402 27.6918 58.0798 27.6918 58.9588ZM33.9772 66.9598C33.7835 67.0641 33.627 67.2131 33.5078 67.4068C33.4035 67.5856 33.3365 67.8091 33.3067 68.0773C33.3365 69.8056 33.3886 70.8486 33.4631 71.2062C33.5376 71.5488 33.5749 71.7798 33.5749 71.899C33.5749 72.4354 33.2024 72.8823 32.4574 73.2399C31.7273 73.5975 31.0792 73.7763 30.513 73.7763C29.9618 73.7763 29.6861 73.5081 29.6861 72.9717L29.7308 72.6142C30.0884 69.9621 30.2672 67.2131 30.2672 64.3673L30.1555 60.7468C30.1555 60.3594 30.0288 59.9794 29.7755 59.607C29.5371 59.2345 29.4179 58.9141 29.4179 58.6459C29.4179 58.1692 29.7308 57.7445 30.3566 57.372C30.9973 56.9996 31.6826 56.7388 32.4127 56.5898C33.1577 56.4259 33.7313 56.344 34.1336 56.344C34.5508 56.344 34.9009 56.3589 35.184 56.3887C35.4671 56.4185 35.8694 56.5079 36.3909 56.6569C36.9272 56.8059 37.3966 57.007 37.7989 57.2603C38.2011 57.5136 38.5513 57.9084 38.8493 58.4448C39.1622 58.9812 39.3186 59.674 39.3186 60.5233C39.3186 61.3576 39.1324 62.1846 38.7599 63.004C38.4023 63.8086 37.9627 64.4493 37.4413 64.9261C36.3834 65.8796 35.4149 66.4979 34.5359 66.781L33.9772 66.9598ZM35.1617 62.8476C35.4298 62.1771 35.5863 61.6631 35.631 61.3055C35.6757 60.933 35.698 60.6127 35.698 60.3445C35.698 60.0614 35.6608 59.7932 35.5863 59.5399C35.5267 59.2717 35.4522 59.078 35.3628 58.9588C35.2734 58.8247 35.1691 58.7204 35.0499 58.6459C34.886 58.5417 34.7296 58.4895 34.5806 58.4895C34.2379 58.4895 33.9623 58.6534 33.7537 58.9812C33.5451 59.309 33.4408 59.6517 33.4408 60.0092C33.3216 60.7691 33.262 61.6035 33.262 62.5123C33.262 63.4212 33.2694 63.9501 33.2843 64.0991C33.2843 64.3524 33.3886 64.4791 33.5972 64.4791C33.7313 64.4791 33.8878 64.4195 34.0665 64.3003C34.5284 64.0023 34.8935 63.5181 35.1617 62.8476ZM41.1268 66.4011C41.1268 66.4905 41.1566 66.565 41.2162 66.6246C41.2758 66.6991 41.3503 66.7363 41.4397 66.7363C42.2889 66.6618 42.8551 66.2596 43.1382 65.5295C43.2127 65.3656 43.2648 65.1719 43.2946 64.9484C43.2797 64.4269 43.0712 64.1662 42.6689 64.1662C42.207 64.1662 41.8494 64.3897 41.5961 64.8367C41.3577 65.2836 41.2013 65.8051 41.1268 66.4011ZM42.6465 62.1101C43.6448 62.1101 44.4195 62.3634 44.9708 62.8699C45.537 63.3765 45.8201 64.1438 45.8201 65.1719C45.8201 66.2 45.4104 67.0492 44.5909 67.7197C43.7863 68.3902 42.7657 68.7254 41.5291 68.7254C41.3503 68.7254 41.2609 68.8148 41.2609 68.9936C41.2609 69.3512 41.3875 69.6641 41.6408 69.9323C41.909 70.1855 42.2666 70.3122 42.7136 70.3122C43.1754 70.3122 43.5852 70.1036 43.9428 69.6864C44.3153 69.2692 44.6356 69.0606 44.9038 69.0606C45.1869 69.0606 45.4104 69.1798 45.5743 69.4182C45.7381 69.6566 45.8201 69.9993 45.8201 70.4463C45.8201 70.8784 45.7083 71.3179 45.4849 71.7649C45.2763 72.197 45.023 72.5248 44.725 72.7482C44.427 72.9717 44.0918 73.1505 43.7193 73.2846C43.168 73.4932 42.5795 73.5975 41.9537 73.5975C41.3428 73.5975 40.7692 73.4485 40.2328 73.1505C39.6964 72.8525 39.2792 72.4503 38.9813 71.9437C38.4002 70.9305 38.1096 69.8131 38.1096 68.5913C38.1096 67.3547 38.2586 66.2819 38.5566 65.373C38.8546 64.4642 39.3612 63.6969 40.0764 63.0711C40.8064 62.4304 41.6632 62.1101 42.6465 62.1101ZM49.7354 58.9588L49.6907 60.0316C49.6907 60.419 49.7726 60.635 49.9365 60.6797C50.1153 60.7244 50.2867 60.7468 50.4506 60.7468C50.6144 60.7468 50.8603 60.7319 51.1881 60.7021C51.501 60.7021 51.6574 60.9032 51.6574 61.3055C51.6574 62.0654 51.1136 62.6539 50.0259 63.0711C49.8769 63.1307 49.7726 63.2648 49.713 63.4734C49.6236 64.3822 49.5789 65.4475 49.5789 66.6693C49.5789 67.891 49.6236 68.6956 49.713 69.083C49.7875 69.4406 50.0557 69.6566 50.5176 69.7311C50.6219 69.7311 50.7187 69.7833 50.8081 69.8876C50.972 70.0813 51.054 70.2749 51.054 70.4686C51.054 70.6474 51.0391 70.8262 51.0093 71.005C50.9795 71.1689 50.905 71.4073 50.7858 71.7202C50.6815 72.0182 50.54 72.3013 50.3612 72.5695C50.1973 72.8227 49.944 73.0462 49.6013 73.2399C49.2586 73.4336 48.8712 73.5305 48.4391 73.5305C47.6942 73.5305 47.1578 73.0909 46.83 72.2119C46.7108 71.8692 46.6512 71.4594 46.6512 70.9827L46.83 64.9708C46.83 64.2407 46.7853 63.6447 46.6959 63.1828C46.6214 62.7209 46.3383 62.2889 45.8466 61.8866C45.638 61.7376 45.5337 61.529 45.5337 61.2608C45.5337 60.9926 45.6678 60.7244 45.936 60.4562C46.7555 59.9496 47.5079 59.1525 48.1933 58.0649C48.4019 57.7818 48.6626 57.6402 48.9755 57.6402C49.4821 57.6402 49.7354 58.0798 49.7354 58.9588Z" fill="#2D2B2C"/>
</svg>
